<?xml version="1.0" encoding="UTF-8"?>
<svg width="48px" height="48px" viewBox="0 0 48 48" version="1.1" xmlns="http://www.w3.org/2000/svg" xmlns:xlink="http://www.w3.org/1999/xlink">
    <!-- Generator: Sketch 46.2 (44496) - http://www.bohemiancoding.com/sketch -->
    <title>flaticon1506551127-svg copy</title>
    <desc>Created with Sketch.</desc>
    <defs></defs>
    <g id="Page-1" stroke="none" stroke-width="1" fill="none" fill-rule="evenodd">
        <g id="Desktop-HD" transform="translate(-541.000000, -457.000000)" fill-rule="nonzero" fill="#fff">
            <g id="Group-3" transform="translate(541.000000, 454.000000)">
                <g id="flaticon1506551127-svg-copy" transform="translate(0.000000, 3.000000)">
                    <path d="M46.7612812,20.7555937 C45.1163437,19.1108438 42.439875,19.1108438 40.7916562,20.7589688 L39.379875,22.1803125 L39.379875,13.9149375 C39.379875,12.7880625 38.9410312,11.7286875 38.1441562,10.9319062 L34.1669062,6.954375 C34.0365937,6.8240625 33.8985937,6.70434375 33.7549687,6.5934375 L33.7549687,1.40625 C33.7549687,0.629625 33.1253437,0 32.3487187,0 L1.41121875,0 C0.63459375,0 0.00496875,0.629625 0.00496875,1.40625 L0.00496875,40.875 C0.00496875,41.651625 0.63459375,42.28125 1.41121875,42.28125 L5.62996875,42.28125 L5.62996875,46.59375 C5.62996875,47.370375 6.25959375,48 7.03621875,48 L37.9737187,48 C38.7503437,48 39.3799687,47.370375 39.3799687,46.59375 L39.3799687,34.1533125 L46.7612812,26.7218438 C48.4062187,25.077 48.4062187,22.4005313 46.7612812,20.7555937 Z M31.1837813,8.53125 C31.5594375,8.53125 31.9125938,8.6775 32.1781875,8.94309375 L36.155625,12.920625 C36.4212188,13.1862187 36.5675625,13.539375 36.5675625,13.9149375 L36.5675625,14.15625 L30.9425625,14.15625 L30.9425625,8.53125 L31.1837813,8.53125 Z M5.62996875,7.125 L5.62996875,39.46875 L2.81746875,39.46875 C2.81746875,39.46875 2.81746875,2.8125 2.81746875,2.8125 L30.9424687,2.8125 L30.9424687,5.71875 L7.03621875,5.71875 C6.25959375,5.71875 5.62996875,6.348375 5.62996875,7.125 Z M8.44246875,45.1875 L8.44246875,8.53125 L28.1299687,8.53125 L28.1299687,15.5625 C28.1299687,16.339125 28.7595937,16.96875 29.5362187,16.96875 L36.5674687,16.96875 L36.5674687,25.0118438 L26.964375,34.6801875 C26.782125,34.86375 26.653875,35.094 26.5940625,35.345625 L25.3557187,40.5494063 C25.1129062,41.5696875 26.0330625,42.481875 27.0456562,42.2439375 L32.2615312,41.0175938 C32.5176563,40.9573125 32.7518437,40.8263437 32.937375,40.6396875 C33.319875,40.2545625 36.1850625,37.3699687 36.5675625,36.9849375 L36.5675625,45.1875 L8.44246875,45.1875 Z M31.7668125,37.827 L31.2255938,38.371875 L28.6189688,38.9847187 L29.2385625,36.3815625 L29.7760313,35.8404375 C30.2070938,36.046125 30.6036563,36.3240937 30.9451875,36.6655312 C31.2846563,37.005 31.5614063,37.3989375 31.7668125,37.827 Z M33.8200313,35.7599063 C33.5623125,35.3720625 33.2657813,35.0087812 32.9339063,34.6768125 C32.5952813,34.3381875 32.2238438,34.0366875 31.8271875,33.7754062 C32.3371875,33.2619375 39.3004688,26.2514062 39.8108438,25.7375625 L41.7995625,27.7262812 L33.8200313,35.7599063 Z M44.7692812,24.7365 L43.781625,25.7308125 L41.7929062,23.7420938 L42.7839375,22.7444063 C43.3321875,22.1960625 44.2245937,22.19625 44.7726562,22.7443125 C45.321,23.2926563 45.321,24.1847813 44.7692812,24.7365 Z" id="Shape"></path>
                    <path d="M23.9112187,11.34375 L12.6612187,11.34375 C11.8845937,11.34375 11.2549687,11.973375 11.2549687,12.75 C11.2549687,13.526625 11.8845937,14.15625 12.6612187,14.15625 L23.9112187,14.15625 C24.6878437,14.15625 25.3174687,13.526625 25.3174687,12.75 C25.3174687,11.973375 24.6878437,11.34375 23.9112187,11.34375 Z" id="Shape"></path>
                    <path d="M23.9112187,16.96875 L12.6612187,16.96875 C11.8845937,16.96875 11.2549687,17.598375 11.2549687,18.375 C11.2549687,19.151625 11.8845937,19.78125 12.6612187,19.78125 L23.9112187,19.78125 C24.6878437,19.78125 25.3174687,19.151625 25.3174687,18.375 C25.3174687,17.598375 24.6878437,16.96875 23.9112187,16.96875 Z" id="Shape"></path>
                    <path d="M32.3487187,22.59375 L12.6612187,22.59375 C11.8845937,22.59375 11.2549687,23.223375 11.2549687,24 C11.2549687,24.776625 11.8845937,25.40625 12.6612187,25.40625 L32.3487187,25.40625 C33.1253437,25.40625 33.7549687,24.776625 33.7549687,24 C33.7549687,23.223375 33.1253437,22.59375 32.3487187,22.59375 Z" id="Shape"></path>
                    <path d="M24.9055313,31.4431875 C24.3564375,30.8939063 23.466,30.8939063 22.9169063,31.4431875 L15.4737188,38.8862813 L13.6555313,37.0681875 C13.1064375,36.519 12.216,36.519 11.6668125,37.0681875 C11.117625,37.617375 11.117625,38.5077188 11.6668125,39.0569063 L14.4793125,41.8694063 C15.0284063,42.4185938 15.9189375,42.4185938 16.4680313,41.8694063 L24.9055313,33.4319063 C25.4547188,32.8827188 25.4547188,31.992375 24.9055313,31.4431875 Z" id="Shape"></path>
                </g>
            </g>
        </g>
    </g>
</svg>